<?xml version="1.0" encoding="UTF-8" standalone="no"?>
<svg width="50px" height="36px" viewBox="0 0 50 36" version="1.1" xmlns="http://www.w3.org/2000/svg" xmlns:xlink="http://www.w3.org/1999/xlink" xmlns:sketch="http://www.bohemiancoding.com/sketch/ns">
    <!-- Generator: Sketch 3.3.3 (12072) - http://www.bohemiancoding.com/sketch -->
    <title>Shape Copy</title>
    <desc>Created with Sketch.</desc>
    <defs></defs>
    <g id="Welcome" stroke="none" stroke-width="1" fill="none" fill-rule="evenodd" sketch:type="MSPage">
        <g id="Desktop-HD" sketch:type="MSArtboardGroup" transform="translate(-1219.000000, -885.000000)" fill="#818181">
            <path d="M1233.30285,914.463507 C1232.71314,914.463507 1232.11844,914.255383 1231.64368,913.831612 L1219,902.552796 L1232.34583,890.647099 C1233.37531,889.731855 1234.95452,889.819618 1235.87156,890.855223 C1236.78861,891.890828 1236.69615,893.47558 1235.66417,894.395839 L1226.52124,902.552796 L1234.96202,910.080365 C1235.994,911.000624 1236.08646,912.585376 1235.16942,913.620981 C1234.67716,914.180157 1233.99,914.463507 1233.30285,914.463507 L1233.30285,914.463507 Z M1255.65417,914.458492 L1269,902.552796 L1256.35632,891.273979 C1255.32434,890.35372 1253.74513,890.446498 1252.83058,891.482103 C1251.91354,892.517708 1252.006,894.102459 1253.03798,895.022719 L1261.47876,902.552796 L1252.33583,910.707245 C1251.30385,911.627504 1251.21139,913.212255 1252.12844,914.24786 C1252.62069,914.807037 1253.30785,915.090387 1253.995,915.090387 C1254.58471,915.090387 1255.17941,914.882263 1255.65417,914.458492 L1255.65417,914.458492 Z M1243.96502,918.011645 L1248.96252,887.921427 C1249.18991,886.55483 1248.27036,885.263458 1246.90855,885.035274 C1245.54173,884.804582 1244.25737,885.729856 1244.03498,887.096454 L1239.03748,917.186672 C1238.81009,918.553269 1239.72964,919.844641 1241.09145,920.072825 C1241.23138,920.095393 1241.36632,920.105423 1241.50375,920.105423 C1242.70315,920.105423 1243.76262,919.235314 1243.96502,918.011645 L1243.96502,918.011645 Z" id="Shape-Copy" sketch:type="MSShapeGroup"></path>
        </g>
    </g>
</svg>