<?xml version="1.0" encoding="UTF-8" standalone="no"?>
<svg width="50px" height="43px" viewBox="0 0 50 43" version="1.1" xmlns="http://www.w3.org/2000/svg" xmlns:xlink="http://www.w3.org/1999/xlink" xmlns:sketch="http://www.bohemiancoding.com/sketch/ns">
    <!-- Generator: Sketch 3.3.3 (12072) - http://www.bohemiancoding.com/sketch -->
    <title>Shape</title>
    <desc>Created with Sketch.</desc>
    <defs></defs>
    <g id="Welcome" stroke="none" stroke-width="1" fill="none" fill-rule="evenodd" sketch:type="MSPage">
        <g id="Desktop-HD" sketch:type="MSArtboardGroup" transform="translate(-1219.000000, -1080.000000)" fill="#818181">
            <path d="M1252.6413,1104.75272 C1250.69022,1104.75272 1249.1087,1106.94565 1249.1087,1109.6413 C1249.1087,1112.34239 1250.69022,1114.53533 1252.6413,1114.53533 C1254.59239,1114.53533 1256.17391,1112.34239 1256.17391,1109.6413 C1256.1712,1106.94565 1254.59239,1104.75272 1252.6413,1104.75272 L1252.6413,1104.75272 Z M1264.94022,1092.02717 C1265.34511,1091.03533 1265.36141,1085.39946 1263.21467,1080 C1263.21467,1080 1258.29348,1080.54076 1250.84783,1085.65217 C1249.28533,1085.21739 1246.6413,1085.00543 1244.00272,1085.00543 C1241.3587,1085.00543 1238.71739,1085.21739 1237.15489,1085.65217 C1229.70652,1080.54076 1224.78533,1080 1224.78533,1080 C1222.6413,1085.39946 1222.66304,1091.03533 1223.0625,1092.02717 C1220.54076,1094.7663 1219,1098.05707 1219,1102.5462 C1219,1122.07337 1235.2038,1122.38587 1239.29076,1122.38587 C1240.22011,1122.38587 1242.05707,1122.3913 1244.00272,1122.3913 C1245.94565,1122.3913 1247.78533,1122.38587 1248.70924,1122.38587 C1252.80163,1122.38587 1269,1122.07337 1269,1102.5462 C1269,1098.05707 1267.46196,1094.7663 1264.94022,1092.02717 L1264.94022,1092.02717 Z M1244.07609,1119.98641 L1243.92391,1119.98641 C1233.67663,1119.98641 1225.69293,1118.7663 1225.69293,1108.80435 C1225.69293,1106.41576 1226.53533,1104.2038 1228.53804,1102.36685 C1231.87228,1099.30435 1237.51902,1100.92391 1243.92391,1100.92391 L1244.00272,1100.92391 L1244.07609,1100.92391 C1250.48098,1100.92391 1256.13043,1099.30435 1259.46739,1102.36685 C1261.46467,1104.2038 1262.30707,1106.41576 1262.30707,1108.80435 C1262.30707,1118.7663 1254.32609,1119.98641 1244.07609,1119.98641 L1244.07609,1119.98641 Z M1235.36141,1104.75272 C1233.41033,1104.75272 1231.8288,1106.94565 1231.8288,1109.6413 C1231.8288,1112.34239 1233.41033,1114.53533 1235.36141,1114.53533 C1237.31522,1114.53533 1238.89674,1112.34239 1238.89674,1109.6413 C1238.89674,1106.94565 1237.31522,1104.75272 1235.36141,1104.75272 L1235.36141,1104.75272 Z" id="Shape" sketch:type="MSShapeGroup"></path>
        </g>
    </g>
</svg>